PathFileType	4	(X/Y/Z)	../motion_lab\static\Static03\task.trc
DataRate	CameraRate	NumFrames	NumMarkers	Units	OrigDataRate	OrigDataStartFrame	OrigNumFrames
200.000000	200.000000	5	40	mm	200.000000	222	445
Frame#	Time	C7			RBAK			CLAV			STRN			T10			RASI			RPSI			LPSI			LASI			PE01			PE02			PE03			RTH1			RTH2			RTH3			RKNE			RMKNE			RTB1			RTB2			RTB3			RANK			RMMA			RHEE			RD5M			RTOE			LTH1			LTH2			LTH3			LKNE			LMKNE			LTB1			LTB2			LTB3			LANK			LMMA			LHEE			LTOE			LD5M			LGT			RGT			
		X1	Y1	Z1	X2	Y2	Z2	X3	Y3	Z3	X4	Y4	Z4	X5	Y5	Z5	X6	Y6	Z6	X7	Y7	Z7	X8	Y8	Z8	X9	Y9	Z9	X10	Y10	Z10	X11	Y11	Z11	X12	Y12	Z12	X13	Y13	Z13	X14	Y14	Z14	X15	Y15	Z15	X16	Y16	Z16	X17	Y17	Z17	X18	Y18	Z18	X19	Y19	Z19	X20	Y20	Z20	X21	Y21	Z21	X22	Y22	Z22	X23	Y23	Z23	X24	Y24	Z24	X25	Y25	Z25	X26	Y26	Z26	X27	Y27	Z27	X28	Y28	Z28	X29	Y29	Z29	X30	Y30	Z30	X31	Y31	Z31	X32	Y32	Z32	X33	Y33	Z33	X34	Y34	Z34	X35	Y35	Z35	X36	Y36	Z36	X37	Y37	Z37	X38	Y38	Z38	X39	Y39	Z39	X40	Y40	Z40	

223	1.11	-8.903388023376468	1354.311279296875	290.8132934570314	74.01419830322268	1257.531372070313	333.9990539550782	-5.673100471496584	1289.61181640625	152.8293609619141	-0.1216078251600266	1108.250610351563	66.2970886230469	5.337400436401369	1055.059692382813	280.1410522460939	118.0318145751954	885.9572753906255	104.5515060424805	56.8934020996094	921.3495483398442	301.890594482422	-28.40385627746583	918.2509765625005	299.5345153808595	-104.6729431152344	885.4516601562505	96.63233184814459	11.67414093017578	954.0961303710942	289.2980041503907	36.11899948120119	897.502075195313	314.1774902343751	-14.76142120361329	897.0554199218755	310.8619689941407	165.2955017089844	598.338317871094	210.8218536376954	154.2664947509766	519.6248168945315	203.2875213623048	158.9945831298829	570.8306274414065	169.1300354003907	144.2006835937501	452.8208618164065	208.7390747070314	32.71229171752931	446.624938964844	193.4365844726564	161.5358123779297	298.939422607422	226.5191497802736	167.3753204345704	263.0737915039064	276.1022338867189	163.3030853271485	222.4232635498048	246.1543579101564	152.8810577392579	59.3248100280762	300.2031555175782	79.21202087402347	76.86489105224612	267.3479919433595	103.2222290039063	27.89698028564455	333.8972473144532	200.2627716064454	13.98655319213868	199.6884307861329	155.1850738525391	30.44522857666017	151.4559173583985	-167.4629974365235	622.8191528320315	187.6620330810547	-158.4986877441407	570.632263183594	217.859100341797	-164.7109985351563	597.7731933593752	143.9629516601563	-148.5382843017579	445.1133117675784	190.5938568115235	-46.38520812988283	437.4548034667971	178.6629180908204	-183.5458984375001	299.5364074707032	267.4475097656251	-183.9851989746094	220.1824035644532	274.8831787109376	-183.3455352783204	246.8651580810548	233.4096527099611	-185.8094787597657	70.53304290771487	252.4799041748048	-105.9964447021485	74.91254425048831	239.0494079589845	-148.8439331054688	35.90582275390626	303.9894409179689	-176.9421997070313	29.63427162170412	111.4501113891602	-223.6509399414064	18.0849895477295	162.2128906250001	-193.5485839843751	789.0585327148442	178.2409057617188	202.5981750488282	796.0733032226567	182.4200592041016	
224	1.115	-8.909482955932621	1354.32470703125	290.7889709472657	74.02117156982425	1257.544067382813	333.9937438964845	-5.694817543029787	1289.595092773438	152.8186950683594	-0.1112001687288285	1108.241333007813	66.28675079345706	5.345494270324709	1055.070190429688	280.1380920410157	118.0312500000001	885.931030273438	104.5455780029297	56.904411315918	921.3681030273442	301.9053955078126	-28.39189338684083	918.2277221679692	299.5272521972657	-104.6713104248047	885.4509887695317	96.63533020019537	11.49959659576416	954.2634887695317	289.1187438964845	36.07304763793947	897.9624633789067	314.1604309082032	-14.68161964416505	896.7971801757817	311.0234375000001	165.3035583496094	598.3474121093752	210.8216705322267	154.2692108154297	519.610778808594	203.2808380126954	159.001205444336	570.8262329101565	169.1308593750001	144.2017059326172	452.8244323730471	208.738739013672	32.70427322387697	446.6302185058596	193.4580383300782	161.5395507812501	298.9700622558595	226.5056304931642	167.3756256103516	263.0823974609376	276.0774230957032	163.3381042480469	222.3799438476564	246.1590576171876	152.8851013183594	59.31571578979495	300.2122802734376	79.22527313232425	76.92094421386722	267.3343811035157	103.2174224853516	27.88087844848634	333.8905639648439	200.2779846191407	14.01792430877686	199.6624145507814	155.1809539794922	30.44569778442384	151.4548339843751	-167.4827728271485	622.7864379882815	187.6692352294922	-158.5221252441407	570.6289672851565	217.8701477050782	-164.7169952392579	597.7556152343752	143.9764709472657	-148.5617828369141	445.110290527344	190.5922241210938	-46.35254287719728	437.4929809570315	178.6352844238282	-183.4634704589844	299.5855407714845	267.4070739746095	-183.9788055419922	220.1768035888673	274.8773803710939	-183.3496246337891	246.8467559814454	233.4119110107423	-185.8101196289063	70.52783966064456	252.4830169677736	-106.0024948120118	74.87962341308597	239.0677032470704	-148.8149566650391	35.89076614379884	303.973846435547	-176.9553222656251	29.62492752075197	111.4636535644532	-223.659149169922	18.05648612976075	162.2201385498047	-193.539031982422	789.058471679688	178.2696838378907	202.6016235351564	796.065307617188	182.4127655029297	
225	1.12	-8.921505928039554	1354.322265625	290.774627685547	74.02359771728518	1257.526733398438	333.976043701172	-5.70146417617798	1289.580200195313	152.7939147949219	-0.131703406572342	1108.228393554688	66.28998565673831	5.368212699890138	1055.063232421875	280.1195373535157	118.017204284668	885.9430541992192	104.5589828491212	56.91669464111331	921.3532104492192	301.896453857422	-28.38526916503908	918.2573852539067	299.5269165039064	-104.6721649169922	885.447875976563	96.64408874511724	11.59100818634034	953.8237915039067	289.1400146484376	36.05034637451173	897.9423828125005	314.2076110839845	-14.73871898651124	897.0905761718755	310.8098449707032	165.3186187744141	598.3657836914065	210.805145263672	154.2765197753907	519.6101684570315	203.2863006591798	159.0059967041016	570.8394775390627	169.1291656494141	144.2070465087891	452.8306884765627	208.7375793457032	32.72247314453126	446.6383972167971	193.4595794677736	161.4982910156251	299.0535278320314	226.5040435791017	167.3613586425782	263.0475463867189	276.1207885742189	163.3238677978516	222.3778686523439	246.167938232422	152.8789978027344	59.31861495971683	300.2120666503907	79.21507263183597	76.8675231933594	267.3526611328126	103.2280426025391	27.89773368835451	333.8934020996095	200.2759552001954	14.02367115020753	199.6523895263673	155.1815643310547	30.44278144836427	151.4615020751954	-167.4613189697266	622.786560058594	187.6747436523438	-158.507797241211	570.6257324218752	217.8833465576173	-164.7331848144532	597.7526855468752	143.9608917236329	-148.5560607910157	445.1140441894534	190.6166534423829	-46.3860549926758	437.4828186035159	178.6402130126954	-183.8363342285157	299.5158996582032	267.5969848632814	-183.9818115234376	220.1586303710939	274.8848876953126	-183.3400268554688	246.8493194580079	233.4248199462892	-185.8051300048829	70.5226745605469	252.4780120849611	-106.0148468017579	74.87465667724612	239.0795745849611	-148.5530853271485	35.64922332763673	303.983856201172	-176.9309997558594	29.63035964965822	111.4574127197266	-223.6389923095704	18.07188034057618	162.222885131836	-193.5414428710939	789.0429077148442	178.264144897461	202.6128082275392	796.0724487304692	182.3992462158204	
226	1.125	-8.930294990539554	1354.315673828125	290.7471923828126	74.02195739746097	1257.537841796875	333.9594726562501	-5.687982559204103	1289.574340820313	152.7610015869141	-0.1203855276107789	1108.221069335938	66.27630615234378	5.382050991058351	1055.07568359375	280.1206665039064	118.0277175903321	885.9166870117192	104.5452880859376	56.92457199096683	921.342651367188	301.9006958007814	-28.37355613708498	918.2628784179692	299.550018310547	-104.6568222045899	885.4469604492192	96.64944458007818	11.5150842666626	954.3429565429692	289.123748779297	36.04916763305665	897.9371948242192	314.2178649902345	-14.74138355255128	897.070678710938	310.8510742187501	165.3157806396485	598.3438720703127	210.8305206298829	154.2693023681641	519.6179809570315	203.2905120849611	159.0092773437501	570.847839355469	169.1409454345704	144.2130432128907	452.8423767089846	208.7367706298829	32.72201919555665	446.629089355469	193.4585723876954	161.5914459228516	298.9148254394532	226.4698181152345	167.3705139160157	263.0571289062501	276.1169738769532	163.3291015625001	222.405487060547	246.1847534179689	152.8872070312501	59.32187271118167	300.2029113769532	79.20729827880862	76.83621215820315	267.3497619628907	103.2298202514649	27.90914535522462	333.8909301757814	200.2685089111329	14.00673294067384	199.6624908447267	155.1797332763672	30.44074058532716	151.4553222656251	-167.4596710205079	622.7976074218752	187.6733551025391	-158.5213623046876	570.572448730469	217.8726348876954	-164.7414703369141	597.741638183594	143.9697418212891	-148.559066772461	445.1115722656252	190.6144561767579	-46.31587219238283	437.5501403808596	178.5874633789063	-183.5113372802735	299.5619506835939	267.4088439941407	-183.9740295410157	220.1722564697267	274.8924560546876	-183.3422088623047	246.8331298828126	233.4280700683595	-185.8043975830079	70.51214599609378	252.4742889404298	-106.0088729858399	74.89459228515628	239.0634307861329	-148.8418426513672	35.91402816772462	303.9867248535157	-176.941879272461	29.63841819763185	111.4538345336915	-223.6463775634767	18.09840393066407	162.2229309082032	-193.5249328613282	789.0588378906255	178.2739715576172	202.6230468750001	796.0734252929692	182.3924407958985	
227	1.13	-8.944393157958988	1354.327026367188	290.7250061035157	74.02680206298831	1257.568603515625	333.9580993652345	-5.689867973327638	1289.561889648438	152.7512969970704	-0.1309404224157334	1108.204467773438	66.28567504882815	5.391611099243166	1055.079223632813	280.1083984375001	118.0326461791993	885.9387817382817	104.5268936157227	56.93738174438479	921.3515625000005	301.8989562988282	-28.36966705322267	918.260620117188	299.5420837402345	-104.6642608642579	885.4509277343755	96.65406799316412	11.54193878173828	954.3074340820317	289.0776977539064	36.11165237426759	897.9589843750005	314.1456909179689	-14.644850730896	896.8231811523442	310.9913635253907	165.3109588623047	598.3553466796877	210.8261718750001	154.2842407226563	519.6043701171877	203.295379638672	159.0049591064454	570.8421020507815	169.1473999023438	144.2073364257813	452.8171997070315	208.7526245117189	32.71123123168947	446.6229248046877	193.4771881103517	161.5312500000001	298.9953918457032	226.5098419189454	167.3760528564454	263.0574340820314	276.1015014648439	163.3371734619141	222.4182128906251	246.174530029297	152.883773803711	59.29872894287112	300.2215576171876	79.21049499511722	76.83027648925784	267.3604736328126	103.2391738891602	27.85804748535158	333.8876037597657	200.2941131591798	14.01662063598634	199.6599273681642	155.1798400878907	30.44622611999513	151.4560089111329	-167.4595184326172	622.7792968750002	187.6731567382813	-158.515853881836	570.5944824218752	217.8744506835939	-164.7248077392579	597.728454589844	143.9759368896485	-148.5452270507813	445.1117858886721	190.6312255859376	-46.36191558837892	437.5129394531252	178.6245117187501	-183.4735870361329	299.5779113769532	267.4262695312501	-183.9761810302735	220.1870117187501	274.8978881835939	-183.3414611816407	246.8356933593751	233.4315795898439	-185.7929992675782	70.50288391113284	252.4656982421876	-106.0092010498047	74.86921691894534	239.0856475830079	-148.8455963134766	35.91712570190431	303.9956054687501	-176.9449462890626	29.63380241394044	111.4623336791993	-223.653289794922	18.0905876159668	162.2201690673829	-193.5221099853517	789.0496215820317	178.296859741211	202.6125488281251	796.0733032226567	182.3909454345704	
